<mxfile host="app.diagrams.net" modified="2021-07-15T07:32:25.865Z" agent="5.0 (Windows NT 10.0; Win64; x64) AppleWebKit/537.36 (KHTML, like Gecko) Chrome/91.0.4472.124 Safari/537.36" etag="_v3NJyhiYrmTOaoEglYL" version="14.8.6" type="github">
  <diagram id="dFEMBiAQDfq9aI7LGW4W" name="Page-1">
    <mxGraphModel dx="1632" dy="1536" grid="1" gridSize="10" guides="1" tooltips="1" connect="1" arrows="1" fold="1" page="1" pageScale="1" pageWidth="850" pageHeight="1100" math="0" shadow="0">
      <root>
        <mxCell id="0" />
        <mxCell id="1" parent="0" />
        <mxCell id="fIrhu684fTIpMeampoxX-4" style="edgeStyle=orthogonalEdgeStyle;rounded=0;orthogonalLoop=1;jettySize=auto;html=1;exitX=0.5;exitY=1;exitDx=0;exitDy=0;exitPerimeter=0;startArrow=none;" edge="1" parent="1" source="fIrhu684fTIpMeampoxX-20">
          <mxGeometry relative="1" as="geometry">
            <mxPoint x="158.25" y="143.5" as="sourcePoint" />
            <mxPoint x="158.25" y="143.5" as="targetPoint" />
            <Array as="points">
              <mxPoint x="158" y="97" />
            </Array>
          </mxGeometry>
        </mxCell>
        <mxCell id="fIrhu684fTIpMeampoxX-9" value="" style="outlineConnect=0;dashed=0;verticalLabelPosition=bottom;verticalAlign=top;align=center;html=1;shape=mxgraph.aws3.management_console;fillColor=#D2D3D3;gradientColor=none;" vertex="1" parent="1">
          <mxGeometry x="-10" y="70" width="63" height="63" as="geometry" />
        </mxCell>
        <mxCell id="fIrhu684fTIpMeampoxX-12" value="" style="endArrow=classic;startArrow=classic;html=1;" edge="1" parent="1">
          <mxGeometry width="50" height="50" relative="1" as="geometry">
            <mxPoint x="196.5" y="97" as="sourcePoint" />
            <mxPoint x="270" y="97" as="targetPoint" />
          </mxGeometry>
        </mxCell>
        <mxCell id="fIrhu684fTIpMeampoxX-13" value="" style="endArrow=classic;startArrow=classic;html=1;" edge="1" parent="1">
          <mxGeometry width="50" height="50" relative="1" as="geometry">
            <mxPoint x="53" y="80" as="sourcePoint" />
            <mxPoint x="126.5" y="80" as="targetPoint" />
          </mxGeometry>
        </mxCell>
        <mxCell id="fIrhu684fTIpMeampoxX-16" value="Amazon EC2" style="outlineConnect=0;fontColor=#232F3E;gradientColor=none;strokeColor=#ffffff;fillColor=#232F3E;dashed=0;verticalLabelPosition=middle;verticalAlign=bottom;align=center;html=1;whiteSpace=wrap;fontSize=10;fontStyle=1;spacing=3;shape=mxgraph.aws4.productIcon;prIcon=mxgraph.aws4.ec2;" vertex="1" parent="1">
          <mxGeometry x="380" y="-20" width="80" height="100" as="geometry" />
        </mxCell>
        <mxCell id="fIrhu684fTIpMeampoxX-17" value="Lambda&#xa;Function" style="outlineConnect=0;fontColor=#232F3E;gradientColor=none;strokeColor=#232F3E;fillColor=#ffffff;dashed=0;verticalLabelPosition=bottom;verticalAlign=top;align=center;html=1;fontSize=12;fontStyle=0;aspect=fixed;shape=mxgraph.aws4.resourceIcon;resIcon=mxgraph.aws4.lambda_function;" vertex="1" parent="1">
          <mxGeometry x="270" y="60" width="60" height="60" as="geometry" />
        </mxCell>
        <mxCell id="fIrhu684fTIpMeampoxX-18" value="Instances" style="outlineConnect=0;fontColor=#232F3E;gradientColor=none;strokeColor=#232F3E;fillColor=#ffffff;dashed=0;verticalLabelPosition=bottom;verticalAlign=top;align=center;html=1;fontSize=12;fontStyle=0;aspect=fixed;shape=mxgraph.aws4.resourceIcon;resIcon=mxgraph.aws4.instances;" vertex="1" parent="1">
          <mxGeometry x="520" y="110" width="60" height="60" as="geometry" />
        </mxCell>
        <mxCell id="fIrhu684fTIpMeampoxX-19" value="Amazon DynamoDB" style="outlineConnect=0;fontColor=#232F3E;gradientColor=none;strokeColor=#ffffff;fillColor=#232F3E;dashed=0;verticalLabelPosition=middle;verticalAlign=bottom;align=center;html=1;whiteSpace=wrap;fontSize=10;fontStyle=1;spacing=3;shape=mxgraph.aws4.productIcon;prIcon=mxgraph.aws4.dynamodb;" vertex="1" parent="1">
          <mxGeometry x="380" y="240" width="80" height="110" as="geometry" />
        </mxCell>
        <mxCell id="fIrhu684fTIpMeampoxX-20" value="Amazon API Gateway" style="outlineConnect=0;fontColor=#232F3E;gradientColor=none;strokeColor=#ffffff;fillColor=#232F3E;dashed=0;verticalLabelPosition=middle;verticalAlign=bottom;align=center;html=1;whiteSpace=wrap;fontSize=10;fontStyle=1;spacing=3;shape=mxgraph.aws4.productIcon;prIcon=mxgraph.aws4.api_gateway;" vertex="1" parent="1">
          <mxGeometry x="130" y="60" width="80" height="110" as="geometry" />
        </mxCell>
        <mxCell id="fIrhu684fTIpMeampoxX-22" value="AWS Direct Connect" style="outlineConnect=0;fontColor=#232F3E;gradientColor=none;strokeColor=#ffffff;fillColor=#232F3E;dashed=0;verticalLabelPosition=middle;verticalAlign=bottom;align=center;html=1;whiteSpace=wrap;fontSize=10;fontStyle=1;spacing=3;shape=mxgraph.aws4.productIcon;prIcon=mxgraph.aws4.direct_connect;" vertex="1" parent="1">
          <mxGeometry x="380" y="120" width="80" height="110" as="geometry" />
        </mxCell>
        <mxCell id="fIrhu684fTIpMeampoxX-24" value="On premise" style="text;html=1;strokeColor=none;fillColor=none;align=center;verticalAlign=middle;whiteSpace=wrap;rounded=0;" vertex="1" parent="1">
          <mxGeometry x="520" y="10" width="40" height="20" as="geometry" />
        </mxCell>
        <mxCell id="fIrhu684fTIpMeampoxX-25" value="" style="endArrow=classic;startArrow=classic;html=1;" edge="1" parent="1">
          <mxGeometry width="50" height="50" relative="1" as="geometry">
            <mxPoint x="330" y="90" as="sourcePoint" />
            <mxPoint x="380" y="40" as="targetPoint" />
            <Array as="points">
              <mxPoint x="370" y="50" />
            </Array>
          </mxGeometry>
        </mxCell>
        <mxCell id="fIrhu684fTIpMeampoxX-26" value="" style="endArrow=classic;startArrow=classic;html=1;" edge="1" parent="1" source="fIrhu684fTIpMeampoxX-17">
          <mxGeometry width="50" height="50" relative="1" as="geometry">
            <mxPoint x="340" y="160" as="sourcePoint" />
            <mxPoint x="510" y="160" as="targetPoint" />
            <Array as="points">
              <mxPoint x="380" y="140" />
            </Array>
          </mxGeometry>
        </mxCell>
        <mxCell id="fIrhu684fTIpMeampoxX-28" value="" style="endArrow=classic;startArrow=classic;html=1;" edge="1" parent="1" target="fIrhu684fTIpMeampoxX-19">
          <mxGeometry width="50" height="50" relative="1" as="geometry">
            <mxPoint x="320" y="110" as="sourcePoint" />
            <mxPoint x="330" y="230" as="targetPoint" />
            <Array as="points">
              <mxPoint x="310" y="160" />
            </Array>
          </mxGeometry>
        </mxCell>
        <mxCell id="fIrhu684fTIpMeampoxX-29" value="1.Fetch VM List" style="text;html=1;strokeColor=none;fillColor=none;align=center;verticalAlign=middle;whiteSpace=wrap;rounded=0;" vertex="1" parent="1">
          <mxGeometry x="70" y="50" width="40" height="20" as="geometry" />
        </mxCell>
        <mxCell id="fIrhu684fTIpMeampoxX-30" value="2./getvm" style="text;html=1;strokeColor=none;fillColor=none;align=center;verticalAlign=middle;whiteSpace=wrap;rounded=0;" vertex="1" parent="1">
          <mxGeometry x="220" y="60" width="40" height="20" as="geometry" />
        </mxCell>
        <mxCell id="fIrhu684fTIpMeampoxX-31" value="3.Fetch EC2 if cloud" style="text;html=1;strokeColor=none;fillColor=none;align=center;verticalAlign=middle;whiteSpace=wrap;rounded=0;" vertex="1" parent="1">
          <mxGeometry x="320" y="20" width="40" height="20" as="geometry" />
        </mxCell>
        <mxCell id="fIrhu684fTIpMeampoxX-32" value="4.Fetch Onpremise VM List" style="text;html=1;strokeColor=none;fillColor=none;align=center;verticalAlign=middle;whiteSpace=wrap;rounded=0;" vertex="1" parent="1">
          <mxGeometry x="350" y="91.5" width="40" height="20" as="geometry" />
        </mxCell>
        <mxCell id="fIrhu684fTIpMeampoxX-33" value="5.VMs Already added to schedule" style="text;html=1;strokeColor=none;fillColor=none;align=center;verticalAlign=middle;whiteSpace=wrap;rounded=0;" vertex="1" parent="1">
          <mxGeometry x="290" y="200" width="40" height="20" as="geometry" />
        </mxCell>
      </root>
    </mxGraphModel>
  </diagram>
</mxfile>
